<svg version="1.1" id="Layer_1" 
	 width="current" viewBox="0 0 379 143" >
<path fill="#2A3647" opacity="1" stroke="none" 
	d="
M245.778137,67.241783 
	C249.888214,59.805218 256.013062,56.616074 264.073822,56.815517 
	C266.571686,56.877319 269.072540,56.806553 271.571777,56.826607 
	C280.516144,56.898376 285.208771,60.771221 286.345306,69.642677 
	C286.735809,72.690826 287.698547,72.747353 290.082855,71.809135 
	C297.107758,69.044868 304.340637,68.416931 311.609833,70.642334 
	C314.007141,71.376244 314.721954,70.599556 315.516296,68.509956 
	C318.539673,60.556774 324.642700,56.971748 332.956726,56.840363 
	C336.454895,56.785088 339.959412,56.722919 343.452820,56.865623 
	C349.965240,57.131645 354.822968,61.222809 356.066956,67.606010 
	C356.468048,69.664124 356.851318,71.071114 359.095398,72.134346 
	C370.106354,77.351288 375.164764,86.339035 373.846313,98.411674 
	C372.942810,106.684479 371.748291,114.937881 370.331512,123.139091 
	C368.599213,133.167023 361.721649,138.962006 351.617737,139.069397 
	C347.007080,139.118408 342.236053,139.963226 337.880524,137.573624 
	C336.612122,136.877716 335.658661,137.753754 334.566559,137.982727 
	C327.503235,139.463638 320.433624,140.398544 313.568268,137.224274 
	C311.931824,136.467651 310.727386,137.136002 309.324768,137.645065 
	C300.361847,140.897919 291.401886,141.423325 282.676666,136.981308 
	C280.658630,135.953949 279.276031,136.797089 277.569916,137.370392 
	C268.167816,140.529770 258.090729,142.343170 249.380280,137.483688 
	C243.142700,134.003784 239.154266,134.545151 233.334656,137.455566 
	C225.488403,141.379501 216.864944,141.148819 208.553711,137.931076 
	C206.804672,137.253922 205.383087,137.100388 203.400986,137.614182 
	C195.123749,139.759766 186.732529,140.720337 178.634094,136.774948 
	C177.434479,136.190506 176.627945,136.189560 175.440781,136.716507 
	C167.801590,140.107315 159.972626,140.260300 152.167404,137.446304 
	C150.056046,136.685104 148.605850,137.816635 146.963928,138.339447 
	C130.265701,143.656342 115.615677,137.631546 108.331863,122.211258 
	C107.478188,121.466202 107.247513,120.822441 107.407990,119.691132 
	C107.355377,118.874222 107.299141,118.408104 107.374390,117.601624 
	C107.759583,116.654045 108.250237,116.192177 108.899872,115.450974 
	C110.047562,113.817223 109.627357,112.397446 109.115433,110.649208 
	C108.666985,108.187729 108.052292,106.093040 108.115005,103.538223 
	C108.421562,101.991310 108.703094,100.811646 108.652222,99.226288 
	C108.092697,96.120110 110.259941,92.613640 106.107162,90.571320 
	C104.497185,88.817543 104.194695,86.884369 103.658722,84.683731 
	C102.201439,81.472290 99.795639,82.284134 97.184998,82.761024 
	C95.967285,83.073082 95.052559,83.146255 93.788803,83.258148 
	C93.204483,83.308044 92.970108,83.325874 92.383652,83.373398 
	C90.599190,83.536758 89.230309,83.998825 87.450653,84.283203 
	C86.334099,84.448486 85.617371,84.695930 84.503571,84.985962 
	C76.017563,85.935837 68.175949,88.473640 59.612053,88.703674 
	C57.775833,87.330009 56.165165,86.849037 54.222248,87.255730 
	C49.223049,88.302185 44.127918,88.818962 38.735310,90.015808 
	C35.744858,90.464981 33.157543,90.764885 30.320702,89.395889 
	C21.835094,85.166801 19.588194,81.023384 20.822567,71.958290 
	C22.932716,56.461624 25.036423,40.963795 27.235266,25.479578 
	C29.055658,12.660402 35.492298,7.132224 48.368977,7.061601 
	C54.136768,7.029967 59.728504,6.911416 65.469788,5.027504 
	C76.667213,1.353247 86.889374,7.013131 90.766960,18.260775 
	C91.547211,20.524035 92.231575,21.002716 94.545677,20.566914 
	C102.240738,19.117743 109.801666,19.460033 116.829865,23.433222 
	C117.946167,24.064293 118.911865,24.260267 120.060760,23.542280 
	C124.239479,20.930836 128.937195,20.753714 133.594513,21.157164 
	C138.160507,21.552696 142.440857,20.545538 146.835556,19.666788 
	C159.029175,17.228588 167.467361,25.412113 165.653534,37.692783 
	C165.459076,39.009369 165.179840,40.316658 165.050186,41.639065 
	C164.243591,49.865742 160.158478,55.307686 151.830536,56.976986 
	C145.831314,58.179501 148.629318,63.443035 147.194992,66.734268 
	C146.386902,68.588554 147.764389,69.278069 149.413528,69.745697 
	C151.577988,70.359444 152.954590,70.361656 154.006577,67.772034 
	C157.132660,60.076588 163.338684,56.888779 171.390945,56.830734 
	C174.220734,56.810337 177.053513,56.904808 179.880157,56.807781 
	C186.441971,56.582550 191.042679,59.435242 193.843704,65.732544 
	C195.281204,66.835152 194.846664,68.861046 196.706268,69.526657 
	C198.178375,69.694275 199.330902,69.687187 200.855225,69.673889 
	C208.493744,72.532677 215.316391,69.681320 222.618164,67.956772 
	C228.106567,67.281792 232.934952,68.399437 237.977020,70.375504 
	C239.544891,70.906860 240.722641,71.611572 242.391403,71.129822 
	C244.080261,70.188187 244.325241,68.438324 245.778137,67.241783 
z"/>
<path fill="#5B4D4C" opacity="1.000000" stroke="none" 
	d="
M201.069427,70.813301 
	C199.474808,71.056946 198.178665,71.042313 196.493515,71.034546 
	C194.725143,69.873009 195.060196,68.288567 195.116394,66.404076 
	C195.893997,62.274723 196.719559,58.539288 197.333923,54.769432 
	C198.034027,50.473511 199.742905,47.169731 204.495453,46.396339 
	C206.025299,46.147388 206.580688,45.486938 206.479416,43.710114 
	C206.212204,39.021694 207.621750,34.501804 208.597504,29.975763 
	C209.892334,23.969648 214.121216,20.756138 219.943604,20.843523 
	C225.674240,20.929531 229.811432,24.359970 230.964142,30.396259 
	C231.802216,34.784954 233.334595,39.117584 232.942474,43.654148 
	C232.764618,45.711792 233.686218,46.272728 235.340820,46.572807 
	C239.088394,47.252468 241.084351,49.638184 241.737213,53.629925 
	C241.326950,54.374329 240.859344,54.602531 239.915710,54.677971 
	C236.673248,54.276775 233.808960,54.342960 230.557770,54.333290 
	C229.391266,54.289707 228.636551,54.143070 227.569839,53.713432 
	C225.832993,52.258427 226.216171,50.644588 227.036133,49.482246 
	C230.101852,45.136417 228.719284,41.091274 226.393372,36.713737 
	C224.591827,33.715927 222.896667,31.071785 219.159470,31.387251 
	C215.864120,31.665419 214.527267,34.003792 213.527771,37.125343 
	C210.564880,40.962700 209.380035,44.642090 212.001892,48.845341 
	C212.809052,50.139381 213.123657,51.619675 211.979523,53.348732 
	C210.495895,54.265690 209.177246,54.309406 207.860580,54.389412 
	C201.166779,54.796162 201.269165,54.798450 201.346786,61.732071 
	C201.379669,64.669228 202.179550,67.616333 201.069427,70.813301 
z"/>
<path fill="#CC413D" opacity="1.000000" stroke="none" 
	d="
M108.370224,116.958054 
	C108.105812,117.678871 107.943237,117.973892 107.643097,118.481972 
	C107.549301,118.917526 107.593079,119.140030 107.345657,119.186722 
	C107.054459,119.010918 107.053360,118.933716 107.016647,118.921791 
	C106.689735,118.628067 106.357231,118.579071 105.713058,118.680832 
	C101.931473,119.187958 98.425278,119.743896 94.543610,120.498100 
	C94.168144,120.696365 94.598991,120.927200 94.403465,120.780579 
	C93.423286,120.745468 92.638641,120.856979 91.464119,121.041237 
	C90.583221,121.600456 89.962288,121.626747 89.014221,121.593948 
	C87.010445,121.911324 85.320740,122.241585 83.459076,122.902069 
	C83.794029,123.808174 83.726158,124.306297 82.653503,124.549980 
	C81.823433,124.079056 81.424774,123.784996 80.671028,123.635040 
	C80.386200,124.016602 80.456467,124.254059 80.427742,124.849991 
	C79.351929,125.519051 78.352448,125.316071 76.988510,125.346893 
	C73.579132,125.369568 70.656204,126.111931 67.341415,126.827316 
	C64.907394,127.289566 62.841877,127.525589 60.377838,127.009018 
	C46.973049,129.158524 33.948318,131.402679 20.519781,133.684769 
	C19.692545,133.304413 19.515110,132.799866 19.751572,131.825272 
	C25.045897,127.370583 31.493923,128.047119 37.357460,126.822800 
	C47.041794,124.800697 56.762550,122.874268 66.559174,121.403748 
	C67.693535,121.233482 68.752235,120.688049 70.099213,119.881264 
	C70.923996,119.408386 71.434700,119.238251 72.370270,119.114883 
	C74.326332,119.155434 75.831062,119.801659 77.810349,119.423203 
	C86.804787,117.767708 95.388168,116.073715 104.450684,114.673630 
	C105.744926,114.717331 106.591263,114.866348 107.746910,115.485794 
	C108.227737,116.002106 108.349899,116.267181 108.370224,116.958054 
z"/>
<path fill="#F8E7E6" opacity="1.000000" stroke="none" 
	d="
M11.859371,110.859482 
	C11.823383,110.279434 11.762295,110.066788 11.932875,109.676094 
	C9.885431,107.096405 9.735347,104.166229 10.110344,100.716843 
	C11.767952,97.574310 14.666893,97.743324 17.551208,96.912521 
	C28.996504,95.072441 39.980099,93.093956 51.318169,90.705765 
	C60.138382,89.398643 68.390755,87.180565 77.346977,86.810516 
	C79.218185,87.268295 80.512680,87.864151 81.110039,89.753082 
	C76.784218,93.325844 71.557419,92.994965 66.745079,93.884041 
	C52.207264,96.569885 37.691463,99.380119 23.133617,101.960899 
	C15.271940,103.354599 15.246293,103.480545 16.730921,111.162727 
	C16.858843,111.824661 16.825874,112.484520 16.535849,113.534050 
	C15.979415,114.365105 15.500992,114.664108 14.503576,114.878448 
	C12.810544,114.825516 11.819951,114.371590 11.544518,112.549110 
	C11.592482,111.831635 11.648270,111.547989 11.859371,110.859482 
z"/>
<path fill="#CF4843" opacity="1.000000" stroke="none" 
	d="
M52.125450,91.500244 
	C40.950226,93.970802 29.893440,96.052261 18.413994,98.092583 
	C17.258083,97.463943 17.103014,96.671898 17.304348,95.498772 
	C16.968472,93.770622 17.221802,92.897522 19.337143,93.286774 
	C21.602875,93.922623 23.489981,93.740768 25.679695,93.056023 
	C26.001022,93.007721 26.490337,93.026054 26.725983,92.959625 
	C32.559116,90.533531 38.794041,91.420158 44.838722,89.285751 
	C46.668926,88.261635 48.232414,87.911194 50.307278,88.276932 
	C51.741013,89.002197 52.157372,89.962616 52.125450,91.500244 
z"/>
<path fill="#625555" opacity="1.000000" stroke="none" 
	d="
M239.739044,54.312832 
	C240.435959,53.987720 240.801605,53.982666 241.441513,53.981087 
	C242.545197,58.008694 243.374619,62.032829 244.275772,66.472046 
	C244.952621,68.530121 244.747131,70.061325 243.373642,71.701256 
	C241.794418,73.636406 240.504288,72.648338 238.889893,71.826897 
	C236.483521,65.864639 237.574280,60.230251 239.739044,54.312832 
z"/>
<path fill="#E9CCCC" opacity="1.000000" stroke="none" 
	d="
M46.397057,89.498596 
	C40.584423,92.297676 34.342098,93.360184 27.414059,92.950836 
	C26.716908,90.928513 27.845211,90.040344 29.769711,89.350090 
	C32.697815,89.081261 35.368595,90.396233 38.538765,89.174164 
	C41.384995,88.246056 43.786739,88.142479 46.397057,89.498596 
z"/>
<path fill="#CD403B" opacity="1.000000" stroke="none" 
	d="
M11.994596,111.862747 
	C12.697036,112.648178 12.884160,113.237717 13.217772,114.008812 
	C14.617066,114.261383 15.008795,115.218231 15.125413,116.179726 
	C15.713499,121.028366 16.982201,125.772850 17.272129,131.103455 
	C17.125679,132.145370 16.924805,132.706421 16.309151,133.552597 
	C13.359071,133.545731 14.074957,131.120605 13.185717,129.295364 
	C11.283290,127.227722 11.620595,124.776138 10.894938,122.291641 
	C10.814288,121.158401 10.987093,120.427628 11.245672,119.335754 
	C11.032706,116.959724 10.721827,114.943192 10.428233,112.488464 
	C10.790110,111.922485 11.134693,111.794662 11.994596,111.862747 
z"/>
<path fill="#F9E8E8" opacity="1.000000" stroke="none" 
	d="
M66.596306,125.988083 
	C69.822151,125.006302 72.986176,124.421150 76.563805,123.865875 
	C77.854904,125.138771 78.939171,125.078545 80.186813,124.100670 
	C80.251236,123.806595 80.292206,123.821800 80.304070,123.800468 
	C80.740044,125.072304 82.693031,126.902969 79.369438,126.981728 
	C76.476265,127.050270 73.773277,128.569489 70.382072,127.988266 
	C68.744286,127.582649 67.158913,128.014709 66.596306,125.988083 
z"/>
<path fill="#EEBFBE" opacity="1.000000" stroke="none" 
	d="
M66.271088,125.603760 
	C67.189178,126.860085 68.515366,126.896790 69.731300,127.705475 
	C67.471802,128.620621 65.016327,129.354477 62.517269,129.881729 
	C60.900352,130.222855 60.151081,129.251541 60.051598,127.298889 
	C61.743847,125.502182 63.947544,126.164833 66.271088,125.603760 
z"/>
<path fill="#D56258" opacity="1.000000" stroke="none" 
	d="
M17.029156,95.112030 
	C18.144346,95.804871 18.020267,96.631584 17.998856,97.740265 
	C15.813247,98.610809 13.635160,99.170166 11.088736,99.822800 
	C9.707231,99.870567 9.477516,99.259911 9.777902,98.036552 
	C12.174341,96.799263 14.408221,95.909554 17.029156,95.112030 
z"/>
<path fill="#C8302A" opacity="1.000000" stroke="none" 
	d="
M9.591597,97.873245 
	C10.054579,98.288681 10.168696,98.888397 10.501605,99.702095 
	C11.129112,102.827141 11.537829,105.738197 11.990438,109.092377 
	C11.522452,110.053108 10.564585,110.300819 10.371478,109.763924 
	C9.009559,105.977280 6.610759,102.238808 9.591597,97.873245 
z"/>
<path fill="#F6DCDC" opacity="1.000000" stroke="none" 
	d="
M11.587568,120.798035 
	C12.279202,123.409157 12.702990,125.787361 13.086687,128.571274 
	C9.795873,131.359055 9.592828,128.648270 9.051201,126.214638 
	C10.760876,124.494438 9.040657,122.788437 9.744270,121.014473 
	C10.388512,120.521515 10.846004,120.474785 11.587568,120.798035 
z"/>
<path fill="#EFC3C2" opacity="1.000000" stroke="none" 
	d="
M25.971525,92.627060 
	C24.404602,95.929443 22.252918,95.735023 19.764780,93.721275 
	C21.579338,91.880196 23.244740,89.105400 25.971525,92.627060 
z"/>
<path fill="#F0C5C4" opacity="1.000000" stroke="none" 
	d="
M94.189705,121.005928 
	C94.207939,120.633957 94.236389,120.696030 94.202271,120.696198 
	C94.498009,120.730843 94.838913,120.723473 95.155815,120.807076 
	C96.497162,121.160927 98.191994,120.243294 99.145164,121.771042 
	C99.323753,122.057289 98.799751,123.195213 98.361694,123.382347 
	C96.306900,124.260185 94.951263,123.342804 94.189705,121.005928 
z"/>
<path fill="#E69F9F" opacity="1.000000" stroke="none" 
	d="
M8.591111,120.175758 
	C8.331172,117.569336 6.179428,115.238472 7.594728,112.436607 
	C10.084947,114.220451 8.611089,116.822258 9.233408,119.309494 
	C9.128661,119.900116 9.014735,120.082092 8.591111,120.175758 
z"/>
<path fill="#DC7978" opacity="1.000000" stroke="none" 
	d="
M8.149303,120.444626 
	C8.449806,120.048378 8.618199,120.009315 9.014589,119.844193 
	C9.242587,119.718140 9.642517,119.693260 9.834455,119.750717 
	C10.162847,120.002045 10.299300,120.195923 10.350391,120.735031 
	C9.421628,122.609993 12.419220,124.543060 9.424222,125.873627 
	C8.730842,124.177299 8.374018,122.489555 8.149303,120.444626 
z"/>
<path fill="#F0C5C4" opacity="1.000000" stroke="none" 
	d="
M88.977219,121.840073 
	C89.284752,121.388344 89.869362,121.195625 90.764107,121.058441 
	C91.853371,122.089478 94.101089,123.002563 92.273354,124.349365 
	C89.956642,126.056450 90.291153,122.873199 88.977219,121.840073 
z"/>
<path fill="#DF8B80" opacity="1.000000" stroke="none" 
	d="
M16.223038,134.100403 
	C16.002558,133.395554 16.012497,132.918259 16.147362,132.104675 
	C17.246052,130.998383 18.297379,131.008041 19.701607,131.734039 
	C20.027977,132.390457 20.045250,132.770859 20.089249,133.436981 
	C19.002491,134.574112 17.831383,135.076797 16.223038,134.100403 
z"/>
<path fill="#949195" opacity="1.000000" stroke="none" 
	d="
M194.861008,66.104889 
	C196.201721,67.293480 195.820450,68.849510 196.064728,70.664154 
	C192.852325,70.995506 194.488647,68.322174 193.905380,66.463966 
	C194.153717,66.102753 194.357025,66.143585 194.861008,66.104889 
z"/>
<path fill="#CECED0" opacity="1.000000" stroke="none" 
	d="
M243.396790,71.943703 
	C243.393417,70.483955 243.753906,69.043839 244.230957,67.245430 
	C244.717667,66.927872 245.087845,66.968613 245.737610,67.008667 
	C245.237488,68.647240 245.769531,70.883827 243.396790,71.943703 
z"/>
<path fill="#F4E1E1" opacity="1.000000" stroke="none" 
	d="
M106.850433,119.267410 
	C107.054459,119.010918 107.287491,118.864624 107.396507,118.779823 
	C107.694489,119.509163 107.883461,120.323296 108.082901,121.550667 
	C107.179817,121.904633 106.032379,122.341576 105.497505,121.316589 
	C104.974373,120.314110 106.170631,120.075417 106.850433,119.267410 
z"/>
<path fill="#EFC3C1" opacity="1.000000" stroke="none" 
	d="
M10.529127,121.055382 
	C10.208571,120.871513 10.152111,120.662758 10.061022,120.131088 
	C10.289356,119.570648 10.552319,119.333130 11.079433,119.035934 
	C11.539234,119.475891 11.734883,119.975517 11.892974,120.753044 
	C11.501351,121.030800 11.147287,121.030655 10.529127,121.055382 
z"/>
<path fill="#F9E8E8" opacity="1.000000" stroke="none" 
	d="
M82.599236,124.457703 
	C82.416367,124.072762 82.610634,123.772400 83.046005,123.352173 
	C83.573860,123.761551 83.471703,124.198547 82.599236,124.457703 
z"/>
<path fill="#F4E1E1" opacity="1.000000" stroke="none" 
	d="
M103.468025,122.441849 
	C103.529861,122.404167 103.406189,122.479523 103.468025,122.441849 
z"/>
<path fill="#F4E1E1" opacity="1.000000" stroke="none" 
	d="
M105.815613,118.743782 
	C105.907562,118.556122 106.377457,118.480232 106.913635,118.657104 
	C106.717812,118.891769 106.455688,118.873665 105.815613,118.743782 
z"/>
<path fill="#C8302A" opacity="1.000000" stroke="none" 
	d="
M12.419207,111.647415 
	C12.166767,112.057655 11.823625,112.056686 10.963000,112.052994 
	C10.245201,111.337463 10.441559,110.752579 11.514128,110.371735 
	C12.119289,110.715141 12.223896,110.975662 12.419207,111.647415 
z"/>
<path fill="#F8F8F9" opacity="1.000000" stroke="none" 
	d="
M325.622864,72.800896 
	C329.635071,68.120728 334.565369,71.185646 339.656464,69.710922 
	C337.103882,75.249214 336.128540,80.194855 335.867279,86.003166 
	C339.285187,84.914101 342.317810,83.750641 345.555237,83.635872 
	C353.370087,83.358810 358.554932,88.080437 357.897461,95.798752 
	C357.178802,104.235489 355.852325,112.632103 354.490845,120.997383 
	C353.836975,125.014854 345.740509,127.927017 342.600708,125.493301 
	C341.102051,124.331673 342.053619,122.678925 342.225616,121.312729 
	C343.118622,114.219574 344.229797,107.153534 345.092621,100.057106 
	C345.401794,97.514275 346.138428,94.439896 342.134094,93.865776 
	C338.549133,93.351799 334.328369,95.973412 333.848389,99.134033 
	C332.799927,106.037857 331.929474,112.968605 330.899689,119.875435 
	C330.168976,124.776787 323.004059,128.154221 318.870789,125.631950 
	C317.527832,124.812431 318.055603,123.572960 318.210632,122.503197 
	C320.594513,106.053459 323.016205,89.609200 325.622864,72.800896 
z"/>
<path fill="#F8F8F9" opacity="1.000000" stroke="none" 
	d="
M173.558624,87.529617 
	C173.052658,91.079468 172.632355,94.204613 172.072281,98.369064 
	C177.012177,94.184113 181.335205,90.615601 185.550873,86.924500 
	C189.937027,83.084129 195.115417,84.892471 199.888336,85.163094 
	C201.998337,85.282738 200.091431,87.172287 199.304733,87.882965 
	C195.349503,91.456017 191.423508,95.079163 187.252792,98.389275 
	C184.727707,100.393333 184.209915,102.052299 185.967819,104.971733 
	C189.227386,110.385086 191.953156,116.116776 195.060974,121.625778 
	C196.819199,124.742485 195.885406,125.668144 192.568695,125.829178 
	C183.867279,126.251648 183.871582,126.338669 179.879990,118.326241 
	C179.212021,116.985405 178.674835,115.555557 177.840881,114.327316 
	C176.798630,112.792320 176.691833,109.487968 174.597000,110.067520 
	C172.309692,110.700333 169.911209,112.640533 169.565811,115.713707 
	C169.491547,116.374619 169.331253,117.025375 169.234543,117.684326 
	C168.139114,125.148857 167.087555,125.917114 159.648941,125.850960 
	C156.824188,125.825821 155.893036,125.240730 156.360550,122.167816 
	C158.589401,107.517647 160.541000,92.825554 162.669907,78.159805 
	C163.780609,70.508232 164.248474,70.171768 171.774124,70.153923 
	C173.602219,70.149582 175.430344,70.153275 177.823227,70.153275 
	C174.677338,75.617058 174.411255,81.414894 173.558624,87.529617 
z"/>
<path fill="#F8F8F9" opacity="1.000000" stroke="none" 
	d="
M238.756226,96.590500 
	C238.829697,97.178421 238.853058,97.343887 238.857483,97.509857 
	C239.187378,109.836349 239.187225,109.836258 227.287415,109.834412 
	C223.960648,109.833900 220.631668,109.764816 217.308334,109.871429 
	C216.135651,109.909042 214.447876,109.109718 213.962280,110.993080 
	C213.622543,112.310646 213.945480,113.677094 214.816025,114.766930 
	C217.361176,117.953247 220.774750,117.767044 223.078629,115.293015 
	C226.712357,111.390930 231.003998,112.731567 235.160751,112.561722 
	C237.101212,112.482437 237.206406,113.561012 236.604813,115.188850 
	C234.146255,121.841484 224.229752,127.438629 216.049316,126.689117 
	C208.178589,125.967979 203.381531,121.420479 202.251755,112.773239 
	C201.101440,103.968864 203.303299,95.894569 209.238449,89.121407 
	C214.200287,83.458969 220.711212,81.815292 227.827530,83.284363 
	C234.585693,84.679497 237.395218,89.908577 238.756226,96.590500 
z"/>
<path fill="#E6B426" opacity="1.000000" stroke="none" 
	d="
M83.063881,47.020378 
	C78.545639,47.425793 78.025459,45.745621 79.676796,42.377159 
	C83.946526,33.667568 96.508591,28.935303 105.416412,32.856293 
	C109.803070,34.787178 112.229736,38.246288 112.074814,43.040188 
	C111.779030,52.192532 110.128387,61.214012 108.565979,70.199303 
	C107.588150,75.822746 102.427811,74.407150 98.715569,74.169395 
	C96.105927,74.002258 93.775078,73.844658 91.175560,74.651253 
	C85.102600,76.535622 79.484352,74.974159 77.107430,71.267723 
	C74.483627,67.176315 75.717789,60.191719 80.003532,55.661491 
	C84.183212,51.243385 89.699417,49.423950 95.410934,48.034313 
	C97.218498,47.594524 99.709557,48.078583 99.827332,45.118958 
	C99.884842,43.673714 99.307220,42.450176 97.841179,42.010468 
	C95.599289,41.338070 93.071671,41.539642 92.020630,43.592846 
	C90.045090,47.452042 86.841232,47.134403 83.063881,47.020378 
z"/>
<path fill="#F8F9F9" opacity="1.000000" stroke="none" 
	d="
M142.766464,100.702286 
	C147.409744,103.028107 152.073761,104.908806 151.979004,110.973755 
	C151.876221,117.552582 148.269867,121.828125 142.627686,124.561356 
	C132.291275,129.568588 120.899086,125.771126 118.067245,116.470032 
	C116.543480,111.465279 117.111938,110.658463 122.325325,110.658096 
	C125.673294,110.657860 129.222885,109.735405 130.537674,114.692642 
	C131.194000,117.167183 134.140457,117.382599 136.565628,116.761185 
	C138.487930,116.268646 139.856918,114.968300 139.883102,112.889465 
	C139.919861,109.971817 137.449814,109.672035 135.411026,109.090851 
	C133.176208,108.453804 130.851761,108.105270 128.654388,107.368477 
	C124.471031,105.965797 121.230461,103.493645 120.643959,98.758980 
	C120.055405,94.007805 121.218567,89.690086 125.159203,86.738159 
	C131.447449,82.027626 138.484344,81.054909 145.962357,83.450920 
	C146.741730,83.700638 147.480042,84.139259 148.172287,84.590187 
	C151.989578,87.076790 154.859222,92.998085 153.491791,96.690453 
	C151.854553,101.111389 147.737961,98.106316 144.435715,99.086388 
	C142.283600,100.023285 141.592255,98.885620 141.001297,97.611511 
	C140.516235,96.565727 140.240097,95.405014 139.395111,94.559494 
	C138.513992,93.677811 137.444046,93.340805 136.218521,93.667389 
	C135.329071,93.904411 134.787140,94.524925 134.728561,95.424690 
	C134.641968,96.754723 135.451157,97.568649 136.552216,98.120087 
	C138.469879,99.080498 140.770508,99.070847 142.766464,100.702286 
z"/>
<path fill="#F8F8F9" opacity="1.000000" stroke="none" 
	d="
M266.341492,82.370697 
	C268.247681,86.056969 271.331238,83.791374 273.852020,84.225464 
	C275.958405,84.588188 277.228882,83.970398 276.592560,87.429008 
	C275.582397,92.919525 273.423401,95.482468 267.748474,94.528564 
	C265.513855,94.152946 264.427460,95.176964 264.161072,97.497383 
	C263.572388,102.625084 262.879272,107.745499 262.042450,112.838272 
	C261.520691,116.013695 262.630859,117.240936 265.770660,116.694374 
	C266.426819,116.580147 267.098541,116.325462 267.737885,116.389023 
	C269.461395,116.560356 272.353912,114.341797 272.646179,117.247734 
	C272.921600,119.985886 273.524567,123.964516 269.327393,125.178993 
	C263.973267,126.728218 258.508484,127.186035 253.044495,125.819115 
	C249.043015,124.818069 248.678024,121.651276 249.117096,118.290512 
	C249.958450,111.850708 250.773285,105.401466 251.879852,99.004707 
	C252.468445,95.602272 251.825333,94.108231 248.005035,94.385323 
	C246.524155,94.492722 243.285828,95.965973 243.540527,92.562531 
	C243.780197,89.360176 243.278061,84.353539 248.248657,84.621864 
	C253.795059,84.921265 254.298065,81.956383 254.824356,77.925667 
	C255.763611,70.732224 256.521027,70.179161 263.650024,70.154190 
	C265.588867,70.147400 267.527771,70.153168 270.358490,70.153168 
	C267.409821,74.067230 266.934937,78.014084 266.341492,82.370697 
z"/>
<path fill="#F7F7F8" opacity="1.000000" stroke="none" 
	d="
M315.115479,96.925903 
	C313.189606,102.226257 309.068146,98.942833 306.048035,99.717339 
	C303.944824,100.256699 303.540771,98.418190 302.958466,96.706825 
	C301.386719,92.087326 297.233337,91.406242 294.396698,95.418602 
	C290.635315,100.738998 289.808563,106.888290 291.340759,113.085976 
	C292.449158,117.569405 297.998505,118.109322 301.140656,113.745979 
	C303.337982,110.694672 305.656036,109.941048 309.067627,110.074265 
	C314.800110,110.298096 315.411743,111.036728 312.542999,115.900116 
	C307.952209,123.682869 300.895752,127.137413 292.022369,126.635521 
	C285.658081,126.275536 280.677063,122.177963 279.108429,115.868866 
	C276.713348,106.235535 278.558105,97.280548 285.005646,89.641037 
	C289.930542,83.805672 296.593048,82.005363 303.975769,83.131821 
	C310.575043,84.138756 314.352142,88.860985 315.115479,96.925903 
z"/>
<path fill="#E6B326" opacity="1.000000" stroke="none" 
	d="
M46.740669,47.690170 
	C45.742580,54.718197 44.822811,61.310989 43.872288,67.899338 
	C43.080013,73.390816 36.721146,76.691025 31.859093,74.125198 
	C29.784521,73.030380 30.850531,71.130493 31.043104,69.678261 
	C32.793312,56.479584 34.556454,43.280483 36.546253,30.116343 
	C38.371120,18.043381 39.227615,17.548843 51.925697,19.451317 
	C48.389156,28.398460 48.358578,37.960361 46.740669,47.690170 
z"/>
<path fill="#E6B326" opacity="1.000000" stroke="none" 
	d="
M117.395775,73.777649 
	C118.705040,61.102154 120.260498,48.736332 122.037842,36.402485 
	C122.521988,33.042728 131.271408,30.933199 133.609787,33.948162 
	C135.234772,36.043335 135.869232,35.436790 137.323105,34.512730 
	C138.301163,33.891087 139.327805,33.200989 140.426941,32.943180 
	C143.209473,32.290516 146.370224,28.970484 148.774994,32.506607 
	C150.798569,35.482193 147.157913,41.739483 143.368668,42.820789 
	C136.815140,44.690910 132.767776,48.822083 131.631805,55.614868 
	C131.056061,59.057762 130.514542,62.508755 130.067139,65.970253 
	C129.069901,73.685669 128.312408,74.398132 120.703690,74.313652 
	C119.710281,74.302628 118.718185,74.173683 117.395775,73.777649 
z"/>
<path fill="#C9D3D3" opacity="1.000000" stroke="none" 
	d="
M201.185104,71.135040 
	C200.306213,66.323967 199.942764,61.563423 199.338791,56.833595 
	C198.975723,53.990288 200.010925,52.872826 202.817123,52.961418 
	C205.612030,53.049656 208.413284,52.935925 211.661804,52.777843 
	C216.715454,50.694351 221.407333,51.303814 226.506073,52.425285 
	C227.690567,52.805275 228.476761,52.922474 229.649506,53.140991 
	C232.351318,57.732975 229.163513,60.883762 227.285477,64.321320 
	C226.347244,66.038666 224.991440,67.455299 223.173981,68.940895 
	C219.144272,70.275055 215.300751,71.021820 211.610458,72.558586 
	C208.235260,73.964134 205.102631,70.623627 201.185104,71.135040 
z"/>
<path fill="#E5B326" opacity="1.000000" stroke="none" 
	d="
M67.507477,57.547295 
	C66.894196,61.754475 66.499428,65.552444 65.829201,69.301163 
	C65.093513,73.416039 56.738914,76.474426 53.698376,73.836456 
	C52.609272,72.891548 53.172791,71.658943 53.321430,70.581459 
	C54.657291,60.897705 56.215015,51.241154 57.355137,41.535217 
	C57.935730,36.592571 60.091457,34.404430 65.127327,35.032703 
	C67.240189,35.296299 69.413353,35.076569 72.038155,35.076569 
	C68.696960,42.322433 68.832993,49.843288 67.507477,57.547295 
z"/>
<path fill="#DEE5E5" opacity="1.000000" stroke="none" 
	d="
M223.379150,69.307037 
	C223.847534,65.480156 227.378067,63.243774 228.582764,59.669685 
	C229.203156,57.829117 229.553009,55.897362 230.030548,53.624557 
	C233.173203,53.068367 236.315323,52.694229 239.749664,53.733276 
	C239.612518,59.591839 239.154724,65.190895 238.628052,71.223412 
	C233.791672,69.948792 228.899216,69.042778 223.379150,69.307037 
z"/>
<path fill="#E2B127" opacity="1.000000" stroke="none" 
	d="
M60.908104,19.003258 
	C61.664726,18.276396 62.117359,17.760315 62.679810,17.432844 
	C66.109070,15.436252 69.686890,14.930426 72.816376,17.712421 
	C75.551895,20.144199 75.453537,23.374750 73.624969,26.333855 
	C71.387039,29.955416 67.976089,31.369955 63.803970,30.363619 
	C58.783688,29.152700 57.673958,25.095366 60.908104,19.003258 
z"/>
<path fill="#F9E9E9" opacity="1.000000" stroke="none" 
	d="
M105.261757,115.769287 
	C96.238762,117.560623 87.514191,119.142448 78.399246,120.743271 
	C77.166092,119.664429 77.701271,118.734360 78.659576,117.549004 
	C86.108528,114.465561 93.771942,113.828140 101.500771,112.024246 
	C102.209641,111.857697 102.591301,111.742119 103.161316,111.425949 
	C103.529762,110.949982 103.606888,110.615463 103.555878,109.986382 
	C102.758415,107.964432 102.572189,106.079880 102.031967,103.925346 
	C101.981865,99.343590 99.376434,95.479866 100.282143,90.802925 
	C102.073967,88.739075 103.487755,88.979599 104.740219,90.958847 
	C104.921021,91.244568 104.751236,92.086594 105.433533,91.680779 
	C105.655960,91.548500 105.516426,90.762291 105.870270,90.034012 
	C109.328598,88.653725 110.696709,89.603813 110.037979,93.170532 
	C109.744049,94.762054 109.852287,96.427849 109.711220,98.516579 
	C109.377197,99.313316 109.088745,99.634201 108.525482,100.134308 
	C106.329964,102.642235 107.568787,105.284836 107.472679,108.111732 
	C107.008835,109.176590 107.001251,109.875481 107.774734,110.832809 
	C107.993370,111.614502 108.042610,112.079903 108.022415,112.911598 
	C107.751907,114.641335 106.978271,115.443535 105.261757,115.769287 
z"/>
<path fill="#BD3230" opacity="1.000000" stroke="none" 
	d="
M52.406731,91.905411 
	C51.693783,91.141167 51.380554,90.392990 51.063850,89.337967 
	C53.333099,87.697647 55.854485,87.728142 58.665092,87.866692 
	C67.284683,86.646530 75.604263,85.259102 84.343147,83.882019 
	C85.295937,83.654091 85.857391,83.522232 86.693726,83.322693 
	C88.404579,82.874153 89.856934,82.555641 91.678764,82.250336 
	C92.214500,82.316597 92.380760,82.369652 92.765038,82.277786 
	C94.025375,81.977654 95.067696,81.822441 96.504494,81.639336 
	C97.325577,82.027138 97.542221,82.532608 97.438293,83.538925 
	C91.506073,86.980637 85.202583,87.613464 78.365692,87.664841 
	C69.567924,89.083328 61.187191,90.502403 52.406731,91.905411 
z"/>
<path fill="#384354" opacity="1.000000" stroke="none" 
	d="
M143.109848,100.706459 
	C140.605179,100.394974 138.179749,99.917702 135.797211,99.280060 
	C133.869431,98.764130 132.536285,97.533211 132.662216,95.386154 
	C132.789749,93.211975 134.290436,92.230095 136.281433,91.979630 
	C138.420822,91.710503 140.111542,92.282364 141.187180,94.429703 
	C141.930817,95.914261 140.591385,98.353996 143.614868,99.055252 
	C143.732193,99.600372 143.469910,100.035881 143.109848,100.706459 
z"/>
<path fill="#5C3A44" opacity="1.000000" stroke="none" 
	d="
M58.954708,87.649979 
	C56.665718,89.216087 54.208099,89.401985 51.373817,89.110504 
	C49.712238,89.028015 48.328087,88.679253 46.834808,89.682297 
	C44.497833,88.058815 42.055889,89.847054 39.403145,89.178619 
	C44.906097,86.742996 51.351330,86.921509 57.418549,85.238892 
	C58.582890,84.915993 58.876030,86.239479 58.954708,87.649979 
z"/>
<path fill="#C75A52" opacity="1.000000" stroke="none" 
	d="
M107.361702,113.249954 
	C107.128258,112.547813 107.095634,112.095741 107.106430,111.306091 
	C107.531868,110.411087 107.253609,109.910126 106.925911,109.137894 
	C105.922638,105.568520 105.178558,102.272614 107.574974,99.037491 
	C109.001228,100.003418 109.044960,101.368294 109.200348,102.995880 
	C109.401794,105.592415 109.757713,107.825668 110.094398,110.444962 
	C110.814163,112.294434 110.381874,113.851913 110.273941,115.801163 
	C109.682846,116.581764 109.257370,116.931244 108.550140,117.332283 
	C108.214241,117.159447 108.160095,116.935051 108.055359,116.368118 
	C107.751488,115.202263 107.774315,114.330597 107.361702,113.249954 
z"/>
<path fill="#DDA095" opacity="1.000000" stroke="none" 
	d="
M106.132645,89.404694 
	C106.774467,91.829514 107.646637,93.911949 104.994492,95.430359 
	C102.749573,94.398376 106.075584,89.975075 101.343094,89.749588 
	C101.259125,87.810089 101.929932,86.189537 102.420654,84.165192 
	C103.012512,83.285789 103.598618,82.968552 104.576935,83.108330 
	C105.289360,85.234032 105.738914,87.133537 106.132645,89.404694 
z"/>
<path fill="#BF342E" opacity="1.000000" stroke="none" 
	d="
M104.776779,82.947334 
	C104.408318,83.558769 103.976830,83.783012 103.323891,84.119431 
	C102.214737,84.276230 101.327797,84.230827 100.118629,84.231262 
	C99.372627,84.299622 98.948570,84.344910 98.207733,84.407875 
	C97.686829,84.373199 97.482620,84.320084 97.140167,83.982246 
	C96.986221,83.235237 96.970528,82.772934 96.926895,81.961037 
	C99.689041,80.402527 102.341789,80.324821 104.776779,82.947334 
z"/>
<path fill="#E8E7E9" opacity="1.000000" stroke="none" 
	d="
M109.350792,103.103027 
	C108.573036,102.200615 107.800072,101.122284 108.034325,99.383865 
	C108.353203,98.996101 108.722092,98.985863 109.367706,98.974426 
	C110.034012,100.263321 110.309639,101.553749 109.350792,103.103027 
z"/>
<path fill="#BE564C" opacity="1.000000" stroke="none" 
	d="
M110.333107,115.946144 
	C110.075455,114.732300 110.042587,113.232323 110.042442,111.281662 
	C111.036377,112.360664 111.174316,113.972626 110.333107,115.946144 
z"/>
<path fill="#B33330" opacity="1.000000" stroke="none" 
	d="
M86.648972,83.154434 
	C86.427750,83.440865 85.903275,83.689064 85.070625,83.914810 
	C85.290207,83.633644 85.817970,83.374924 86.648972,83.154434 
z"/>
<path fill="#B33330" opacity="1.000000" stroke="none" 
	d="
M92.742828,82.118942 
	C92.841072,82.501221 92.598885,82.624527 92.152359,82.383148 
	C92.048241,82.263535 92.502617,82.105019 92.742828,82.118942 
z"/>
<path fill="#262523" opacity="1.000000" stroke="none" 
	d="
M226.966003,52.349159 
	C222.273178,52.737049 217.642014,52.786015 212.561340,52.739960 
	C211.830582,51.719410 211.787476,50.606110 211.229660,49.898659 
	C207.450043,45.105042 208.640396,40.869934 212.844788,36.720280 
	C213.421478,36.613934 213.633301,36.637749 214.073761,36.887470 
	C214.353470,37.322601 214.404587,37.531830 214.432663,38.064011 
	C214.241272,39.235943 213.978485,40.062199 213.742523,41.234577 
	C214.028839,45.911415 216.254807,48.514652 219.635498,48.521553 
	C222.978592,48.528378 225.476944,45.767895 225.588577,41.465706 
	C225.265991,40.706184 225.130997,40.251564 224.981812,39.424397 
	C224.918228,38.569302 224.958130,38.080479 225.157410,37.240532 
	C225.516281,36.444588 225.852966,36.093159 226.657928,35.926865 
	C231.803268,41.340195 230.722076,46.674660 226.966003,52.349159 
z"/>
<path fill="#A2714E" opacity="1.000000" stroke="none" 
	d="
M214.384415,37.302628 
	C213.996445,37.009457 213.596146,36.814060 213.402893,36.702091 
	C212.252518,32.608002 214.961029,31.046682 217.920395,30.231365 
	C222.366302,29.006500 225.131607,31.473145 226.984589,35.652996 
	C226.707016,36.090088 226.428772,36.238522 226.044434,36.644943 
	C222.345810,39.334015 218.568954,38.609425 214.384415,37.302628 
z"/>
<path fill="#C72926" opacity="1.000000" stroke="none" 
	d="
M104.225601,112.747192 
	C95.908417,114.581314 87.814888,116.207535 79.351578,117.985748 
	C77.256775,119.408241 75.431496,120.311455 72.827621,119.845245 
	C72.252098,119.863525 72.033386,119.823441 71.638306,119.895828 
	C65.951530,122.240166 60.078442,122.500404 53.824867,122.733643 
	C51.878803,121.277092 52.622250,120.157928 54.008057,118.838699 
	C57.111271,117.698380 56.848553,115.462616 56.502922,113.310562 
	C55.953003,109.886490 54.746216,106.603584 54.355244,103.126678 
	C54.175339,101.526802 53.702068,99.695213 51.366478,99.952469 
	C49.452381,100.163300 48.534931,101.275261 48.311329,103.222908 
	C47.859406,107.159370 47.097801,111.068848 47.556557,115.403854 
	C47.318695,115.942886 47.179428,116.136398 46.736500,116.515343 
	C45.768673,116.949783 45.081543,117.012245 44.059891,116.905243 
	C42.915894,116.651138 42.262375,116.769447 42.032188,118.012192 
	C42.011299,118.620575 42.091980,118.937729 42.804977,119.329697 
	C43.516811,119.475113 43.706959,119.512947 44.172398,119.677658 
	C44.610310,119.935265 44.772930,120.065987 45.140594,120.444077 
	C45.442970,120.887108 45.540298,121.082756 45.716537,121.601166 
	C45.861534,122.609306 45.753254,123.263931 45.234333,124.145622 
	C43.892563,125.204178 42.596516,125.520699 40.936665,125.759628 
	C39.478069,125.752182 38.507248,126.242088 37.194786,126.822716 
	C32.399933,127.563583 28.072483,129.027817 23.162468,128.886490 
	C20.865252,127.879936 21.895136,125.916092 21.304899,124.528137 
	C20.354156,122.292442 19.373459,120.052200 16.282808,119.376007 
	C15.623158,118.921913 15.375459,118.535515 15.140551,117.755905 
	C15.046734,116.949776 15.033523,116.486252 15.062729,115.676422 
	C15.134958,115.105217 15.184705,114.879791 15.350822,114.328232 
	C16.512655,112.070732 15.224987,110.602211 14.594712,108.923393 
	C12.874515,104.341415 13.975417,102.221771 18.672173,101.334435 
	C33.524788,98.528404 48.400917,95.846985 63.265072,93.101791 
	C68.977081,92.046875 74.681351,90.950035 80.808762,89.806000 
	C82.558052,88.610329 84.215454,88.497147 86.169739,88.257217 
	C87.759529,88.382195 89.043327,88.911621 90.484550,87.796310 
	C91.156082,87.458336 91.567413,87.343506 92.315048,87.289314 
	C93.889496,87.511879 95.130516,87.283867 96.695343,87.184059 
	C97.221786,87.264122 97.427917,87.324455 97.901329,87.565582 
	C98.341652,88.390182 98.229652,87.510048 98.356346,88.164307 
	C98.413597,88.459953 98.476089,88.753006 98.455894,89.060509 
	C98.540245,88.828552 98.499634,88.586449 98.521835,88.026382 
	C100.546227,85.806145 100.379608,87.788521 100.712601,89.243301 
	C100.733543,89.566574 100.896957,89.830925 101.000977,89.946533 
	C100.195801,94.942619 103.933784,99.237022 102.930161,104.569473 
	C101.790871,106.862747 102.867233,108.208778 104.210938,109.792816 
	C104.553757,110.476021 104.694267,110.906479 104.802208,111.678146 
	C104.662842,112.192673 104.556046,112.365982 104.225601,112.747192 
z"/>
<path fill="#F9E9E9" opacity="1.000000" stroke="none" 
	d="
M15.842461,116.810379 
	C16.051819,117.432106 16.081554,117.859779 16.141842,118.614944 
	C17.736750,120.127136 17.971647,121.955147 18.415443,123.664291 
	C18.875956,125.437813 19.429440,127.108139 21.679962,127.920273 
	C26.878229,127.217995 31.755005,126.421936 37.014420,125.721573 
	C38.083809,125.702988 38.646187,125.262337 39.651531,125.053513 
	C41.417576,124.685005 42.842232,124.351242 44.625389,123.917969 
	C47.258907,122.460045 49.733242,121.996269 52.709602,122.316330 
	C58.923588,121.890106 64.576614,119.909790 70.997375,119.947617 
	C71.956833,123.271751 68.993233,122.324226 67.653595,122.587212 
	C54.433735,125.182411 41.163910,127.522018 27.918194,129.987518 
	C25.492537,130.439011 23.111712,131.131363 20.360451,131.861298 
	C19.010572,131.973709 18.010439,131.937378 16.641296,131.834717 
	C15.312247,126.198250 14.352205,120.628075 13.378210,114.624130 
	C13.831437,114.140121 14.298616,114.089882 15.116495,114.020874 
	C15.575537,114.166725 15.683880,114.331345 15.744122,114.787628 
	C15.489255,115.587418 15.464143,116.099457 15.842461,116.810379 
z"/>
<path fill="#F8E5E4" opacity="1.000000" stroke="none" 
	d="
M72.613083,120.408676 
	C74.032555,118.309532 76.506241,119.368172 78.592896,118.107224 
	C78.675125,118.824287 78.368454,119.510841 78.035324,120.479820 
	C76.262001,120.789322 74.515121,120.816383 72.613083,120.408676 
z"/>
<path fill="#BE564C" opacity="1.000000" stroke="none" 
	d="
M107.084839,113.331909 
	C109.465614,113.075653 108.228218,114.718170 108.190567,115.886719 
	C107.244263,116.017487 106.483734,116.009392 105.343277,115.990044 
	C105.460144,115.043686 107.270882,115.269608 107.084839,113.331909 
z"/>
<path fill="#FDFDFD" opacity="1.000000" stroke="none" 
	d="
M80.011826,123.553391 
	C79.721870,126.011024 78.752342,126.587143 77.041367,124.276382 
	C77.909073,123.697235 78.840736,123.498711 80.011826,123.553391 
z"/>
<path fill="#403846" opacity="1.000000" stroke="none" 
	d="
M101.085335,89.436073 
	C100.008232,88.971222 100.725502,87.425743 99.068268,87.501755 
	C98.800949,87.938377 98.720116,88.194588 98.299240,88.234505 
	C97.959213,88.018204 97.573708,87.941574 97.377258,87.935989 
	C95.847641,86.981720 94.720825,87.956039 93.259369,88.138390 
	C92.538750,87.977493 92.087524,88.000526 91.306686,88.105011 
	C89.974419,88.915359 88.908623,89.473175 87.314682,89.222824 
	C85.319664,89.267906 83.629417,89.515999 81.583771,89.751892 
	C80.316505,89.170555 79.404633,88.601418 78.220711,87.848259 
	C83.875931,85.672318 90.116951,85.209793 96.595337,83.809975 
	C97.186790,83.709770 97.371651,83.722008 97.830490,83.687683 
	C98.294060,83.561035 98.483665,83.480942 98.933037,83.234009 
	C100.364655,83.165825 101.630112,82.711609 102.880768,83.942825 
	C102.669075,85.962891 104.801064,88.536133 101.085335,89.436073 
z"/>
<path fill="#2F3B4D" opacity="1.000000" stroke="none" 
	d="
M226.604248,100.870529 
	C224.421341,101.180710 222.563232,101.489227 220.811554,101.184975 
	C218.970261,100.865166 215.707321,102.827301 215.529327,99.809181 
	C215.345078,96.684944 217.431900,93.793343 220.959778,93.002922 
	C223.987000,92.324677 226.173309,93.612755 226.911041,96.696228 
	C227.206650,97.931747 226.970154,99.294571 226.604248,100.870529 
z"/>
<path fill="#353C42" opacity="1.000000" stroke="none" 
	d="
M88.037262,61.126942 
	C89.378448,59.076038 91.100311,58.095966 92.989166,57.473282 
	C94.485504,56.979996 96.456612,55.684265 97.551689,56.920021 
	C98.889046,58.429184 98.233955,60.902908 97.316513,62.510170 
	C95.580399,65.551659 92.356628,66.300804 89.163940,65.741600 
	C86.718758,65.313316 86.927444,63.316906 88.037262,61.126942 
z"/>
<path fill="#CA352F" opacity="1.000000" stroke="none" 
	d="
M104.428802,109.747482 
	C101.597221,108.942368 101.062317,107.668800 102.656448,105.047287 
	C103.468407,106.485268 103.956390,107.967331 104.428802,109.747482 
z"/>
<path fill="#BE564C" opacity="1.000000" stroke="none" 
	d="
M106.602631,109.005280 
	C107.542274,109.255661 108.044304,109.728310 107.363792,110.790909 
	C106.889763,110.359177 106.629677,109.749817 106.602631,109.005280 
z"/>
<path fill="#CA352F" opacity="1.000000" stroke="none" 
	d="
M104.265221,112.948425 
	C104.071045,112.677147 104.210396,112.440605 104.594818,112.132416 
	C104.689255,112.326820 104.608871,112.634285 104.265221,112.948425 
z"/>
<path fill="#BD3230" opacity="1.000000" stroke="none" 
	d="
M98.980057,83.098969 
	C99.047012,83.340851 98.830444,83.535843 98.323776,83.646622 
	C98.263016,83.390068 98.483955,83.219948 98.980057,83.098969 
z"/>
<path fill="#BF8D67" opacity="1.000000" stroke="none" 
	d="
M225.674652,40.501640 
	C228.015106,40.984406 227.910721,42.224430 227.558044,43.635063 
	C226.745499,46.884918 222.182739,50.418022 219.167145,50.104729 
	C215.102051,49.682407 212.009949,45.658897 212.584854,40.898476 
	C216.966141,38.921452 221.103302,39.361874 225.674652,40.501640 
z"/>
<path fill="#5A595B" opacity="1.000000" stroke="none" 
	d="
M226.061966,40.481533 
	C222.007950,41.388508 217.907318,41.094784 213.355835,40.807903 
	C213.091888,39.892677 213.281082,39.114529 213.715958,38.157837 
	C217.721039,38.286034 221.539886,37.411919 225.577362,38.847496 
	C225.941589,39.502911 225.985947,39.858875 226.061966,40.481533 
z"/>
<path fill="#41362D" opacity="1.000000" stroke="none" 
	d="
M225.924301,38.761993 
	C222.110733,38.958652 218.324219,38.770355 214.249680,38.280678 
	C213.961639,37.979294 213.981567,37.494408 213.989014,37.251930 
	C217.664429,36.977249 221.332397,36.945038 225.451599,36.874580 
	C225.918991,37.349903 225.935181,37.863468 225.924301,38.761993 
z"/>
<path fill="#FAEBE9" opacity="1.000000" stroke="none" 
	d="
M46.339203,116.166580 
	C44.800240,110.825729 47.302223,105.984810 46.919743,100.996162 
	C46.674408,97.796234 50.219109,99.292282 51.958801,98.493340 
	C53.148857,97.946823 54.672649,97.769150 55.013607,99.734978 
	C56.031654,105.604607 57.058784,111.473381 57.984642,117.357864 
	C58.260151,119.108932 56.885014,119.067215 55.361607,118.965164 
	C52.575039,117.161728 53.442318,113.984802 51.759777,111.349991 
	C50.745750,113.352081 51.365997,115.089111 51.518311,116.741631 
	C51.871044,120.568665 50.292522,121.644287 46.582626,119.912796 
	C45.881050,118.612694 45.823231,117.590149 46.339203,116.166580 
z"/>
<path fill="#F8E6E4" opacity="1.000000" stroke="none" 
	d="
M30.755024,122.988701 
	C29.633980,117.070160 28.693432,111.505928 27.817184,105.931587 
	C27.627289,104.723541 26.680912,103.014229 28.503553,102.497490 
	C30.669189,101.883514 33.303776,100.612831 35.163391,101.872940 
	C37.065929,103.162140 35.391895,104.328285 33.732986,104.665863 
	C32.203136,104.977180 30.733995,105.134521 31.275398,107.394867 
	C31.810873,109.630463 33.376282,109.033607 34.810692,108.896278 
	C35.470448,108.833130 36.125790,108.707428 36.777569,108.581306 
	C37.771515,108.388992 38.771084,108.130516 39.130917,109.523621 
	C39.467297,110.825966 38.684948,111.574699 37.634151,111.555542 
	C30.903023,111.432831 32.735851,115.806175 33.306679,119.574196 
	C33.808498,122.886696 33.782486,122.890640 30.755024,122.988701 
z"/>
<path fill="#F9E7E5" opacity="1.000000" stroke="none" 
	d="
M67.554276,113.197159 
	C69.595375,113.357956 71.391281,113.171227 73.190063,113.018547 
	C74.080940,112.942924 74.864159,113.133270 75.009247,114.202805 
	C75.139343,115.161789 74.737228,115.796951 73.749435,115.968163 
	C71.456215,116.365631 69.156303,116.725906 66.867416,117.146454 
	C65.062622,117.478065 64.510765,116.404305 64.266304,114.940994 
	C63.390423,109.697929 62.601032,104.438309 61.597042,99.219948 
	C61.268791,97.513817 61.702431,96.535622 63.319954,96.375450 
	C65.393806,96.170082 67.824898,94.655579 69.479103,96.366653 
	C70.860619,97.795692 69.125145,98.697227 67.722969,98.791344 
	C65.008186,98.973572 65.035255,100.440605 65.490837,102.548676 
	C66.227791,105.958817 66.716637,109.422569 67.554276,113.197159 
z"/>
<path fill="#F8E5E3" opacity="1.000000" stroke="none" 
	d="
M81.984299,104.072472 
	C80.889610,101.145912 82.756432,97.065773 77.652405,96.700638 
	C76.363914,96.608467 76.634514,94.468956 78.415344,94.026413 
	C80.186356,93.586304 82.001816,93.254234 83.817268,93.089073 
	C84.993546,92.982063 86.634949,92.031075 87.219757,93.932907 
	C87.705574,95.512833 86.305939,95.731262 85.215332,96.160622 
	C83.635262,96.782669 84.338806,98.068016 84.516823,99.150734 
	C85.164284,103.088730 85.836983,107.022560 86.498993,110.958168 
	C86.712326,112.226486 87.396301,113.806786 85.361961,114.092567 
	C83.389328,114.369698 83.503250,112.571373 83.251869,111.372314 
	C82.774498,109.095337 82.442726,106.787819 81.984299,104.072472 
z"/>
<path fill="#CA3732" opacity="1.000000" stroke="none" 
	d="
M46.715324,119.925232 
	C49.281212,120.442886 51.091785,120.524223 50.263519,117.233040 
	C49.864620,115.647972 49.814144,113.976845 49.441689,112.383057 
	C49.040939,110.668198 49.233700,109.536438 51.271168,109.196358 
	C53.478237,108.827972 53.674686,110.260834 53.916298,111.794243 
	C54.248158,113.900414 54.616947,116.000771 55.006527,118.500275 
	C54.536663,119.942276 53.045803,120.308136 53.077358,122.093475 
	C50.631794,122.963615 48.195564,123.471588 45.371613,123.899010 
	C44.980457,123.126846 44.977016,122.435234 44.973747,121.397774 
	C45.273804,120.454231 45.789181,120.133682 46.715324,119.925232 
z"/>
<path fill="#CF4941" opacity="1.000000" stroke="none" 
	d="
M22.147423,127.677582 
	C20.093096,129.193283 18.724869,129.233612 18.128456,126.570183 
	C17.610235,124.255928 16.781427,122.011230 16.131134,119.339111 
	C20.164959,117.988014 23.338322,122.342216 22.147423,127.677582 
z"/>
<path fill="#D35C4D" opacity="1.000000" stroke="none" 
	d="
M41.201126,119.272522 
	C40.996105,114.478065 40.996105,114.478065 43.077942,115.645660 
	C44.484177,117.030342 45.273155,118.153610 43.294609,119.784195 
	C42.984646,119.987381 43.001301,120.000099 42.998100,119.989792 
	C42.288898,120.463501 41.783886,120.075836 41.201126,119.272522 
z"/>
<path fill="#C5332F" opacity="1.000000" stroke="none" 
	d="
M96.996162,94.654709 
	C96.831390,94.999641 96.664307,94.998360 96.246582,94.997475 
	C95.613098,95.379265 95.155037,95.526215 94.313400,95.218048 
	C94.068314,93.845421 94.350517,92.674446 95.603226,92.443977 
	C96.963470,92.193726 96.890121,93.405960 96.996162,94.654709 
z"/>
<path fill="#C9312C" opacity="1.000000" stroke="none" 
	d="
M43.240303,119.991547 
	C43.543209,118.889870 44.199608,117.801338 43.228180,116.271706 
	C43.795647,115.975235 44.433144,115.976944 45.391037,115.965294 
	C47.252377,117.063103 45.908924,118.252701 45.578293,119.724571 
	C45.123276,120.165680 44.895401,120.290802 44.337425,120.208336 
	C43.836872,119.999069 43.666416,119.997391 43.240303,119.991547 
z"/>
<path fill="#DA776C" opacity="1.000000" stroke="none" 
	d="
M44.804058,120.246445 
	C45.256805,118.880524 45.522160,117.762062 45.749474,116.297775 
	C45.711433,115.951942 46.087112,115.816689 46.286095,115.802109 
	C46.720371,116.884140 46.955666,117.980751 47.109066,119.493744 
	C46.849060,120.640335 46.343781,120.971313 45.303726,121.052048 
	C44.973915,121.051918 44.992352,121.013512 44.974339,121.013542 
	C44.843105,120.840347 44.729885,120.667130 44.804058,120.246445 
z"/>
<path fill="#C9322B" opacity="1.000000" stroke="none" 
	d="
M97.000458,94.999084 
	C97.843147,94.834061 98.653091,93.682755 99.510620,94.817741 
	C99.676659,95.037498 99.453857,95.774239 99.184563,96.058586 
	C98.316238,96.975449 97.548065,96.864967 97.040634,95.305527 
	C96.998474,95.000916 97.000000,95.000000 97.000458,94.999084 
z"/>
<path fill="#C5332F" opacity="1.000000" stroke="none" 
	d="
M92.536469,95.354698 
	C92.600143,96.759468 91.913818,96.940582 91.150856,96.363167 
	C90.750587,96.060249 90.332550,95.097755 90.511642,94.835632 
	C91.143845,93.910370 91.818787,94.546028 92.536469,95.354698 
z"/>
<path fill="#C5332F" opacity="1.000000" stroke="none" 
	d="
M87.224182,89.280624 
	C88.106232,88.726501 89.202553,88.433189 90.637970,88.163177 
	C90.500946,90.475143 89.044945,90.204796 87.224182,89.280624 
z"/>
<path fill="#C9312C" opacity="1.000000" stroke="none" 
	d="
M40.854424,119.130547 
	C41.560860,119.238808 42.021198,119.521652 42.738220,119.891991 
	C42.522240,120.716553 41.853546,121.106186 41.010010,120.786537 
	C40.315395,120.523331 40.173641,119.954193 40.854424,119.130547 
z"/>
<path fill="#C5332F" opacity="1.000000" stroke="none" 
	d="
M93.183868,88.210510 
	C94.191101,87.389389 95.379173,86.732399 96.969482,87.674782 
	C95.861320,87.741592 94.776283,89.215836 93.183868,88.210510 
z"/>
<path fill="#F8E5E4" opacity="1.000000" stroke="none" 
	d="
M39.871811,124.732994 
	C39.372368,125.310966 38.751820,125.603149 37.764160,125.856308 
	C38.081268,125.188217 38.274372,123.715477 39.871811,124.732994 
z"/>
<path fill="#C9322B" opacity="1.000000" stroke="none" 
	d="
M94.042709,95.295952 
	C94.447479,94.997910 94.889915,94.998474 95.664154,94.998451 
	C95.763672,95.516075 95.663185,96.290520 95.268723,96.493408 
	C94.652504,96.810349 94.248703,96.216560 94.042709,95.295952 
z"/>
<path fill="#C5332F" opacity="1.000000" stroke="none" 
	d="
M97.993805,88.279991 
	C97.959213,88.018204 98.416962,87.841461 98.649368,87.761810 
	C98.762962,88.180840 98.644157,88.679527 98.525345,89.178207 
	C98.359695,88.966064 98.194038,88.753922 97.993805,88.279991 
z"/>
<path fill="#F8E7E6" opacity="1.000000" stroke="none" 
	d="
M16.084291,116.670128 
	C15.335816,116.678116 14.948518,116.223305 15.520946,115.255264 
	C15.846178,115.498146 15.996339,115.916985 16.084291,116.670128 
z"/>
<path fill="#CA3732" opacity="1.000000" stroke="none" 
	d="
M44.745422,119.999527 
	C44.997547,120.168465 45.003635,120.337944 44.983025,120.760498 
	C44.648056,120.897110 44.399940,120.703545 44.109650,120.216812 
	C44.007324,120.000748 44.499390,120.000076 44.745422,119.999527 
z"/>
<path fill="#D35753" opacity="1.000000" stroke="none" 
	d="
M50.270470,103.798096 
	C50.297054,102.255615 50.825787,101.233200 51.943443,102.279114 
	C52.838982,103.117180 53.539028,104.821693 52.163895,105.741875 
	C50.948067,106.555450 50.679218,105.048882 50.270470,103.798096 
z"/>
</svg>